<svg width="141" height="45" viewBox="0 0 141 45" fill="none" xmlns="http://www.w3.org/2000/svg">
<path d="M70.33 25.02H76.78C76.6 25.74 76.33 26.41 75.97 27.03C75.63 27.65 75.18 28.2 74.62 28.68C74.08 29.14 73.44 29.5 72.7 29.76C71.96 30.02 71.12 30.15 70.18 30.15C69.14 30.15 68.17 29.97 67.27 29.61C66.39 29.25 65.62 28.73 64.96 28.05C64.3 27.37 63.78 26.56 63.4 25.62C63.04 24.68 62.86 23.64 62.86 22.5C62.86 21.36 63.05 20.32 63.43 19.38C63.81 18.44 64.33 17.64 64.99 16.98C65.65 16.32 66.42 15.81 67.3 15.45C68.2 15.09 69.16 14.91 70.18 14.91C71.64 14.91 72.88 15.22 73.9 15.84C74.94 16.44 75.75 17.24 76.33 18.24L79.21 16.29C78.59 15.31 77.84 14.48 76.96 13.8C76.08 13.1 75.07 12.57 73.93 12.21C72.81 11.83 71.56 11.64 70.18 11.64C68.6 11.64 67.13 11.91 65.77 12.45C64.43 12.97 63.26 13.71 62.26 14.67C61.28 15.63 60.51 16.78 59.95 18.12C59.41 19.44 59.14 20.9 59.14 22.5C59.14 24.1 59.41 25.57 59.95 26.91C60.49 28.25 61.25 29.41 62.23 30.39C63.23 31.37 64.4 32.13 65.74 32.67C67.08 33.19 68.54 33.45 70.12 33.45C71.8 33.45 73.29 33.15 74.59 32.55C75.89 31.93 76.98 31.09 77.86 30.03C78.74 28.97 79.4 27.76 79.84 26.4C80.28 25.02 80.48 23.56 80.44 22.02H70.33V25.02ZM87.1012 27.6V19.2H83.7712V27.96C83.7712 29.06 83.9512 30.01 84.3112 30.81C84.6912 31.61 85.2412 32.23 85.9612 32.67C86.6812 33.09 87.5512 33.3 88.5712 33.3C89.5312 33.3 90.3512 33.1 91.0312 32.7C91.7312 32.28 92.3012 31.67 92.7412 30.87V33H95.9812V19.2H92.7412V27.6C92.7412 28.22 92.6112 28.76 92.3512 29.22C92.0912 29.68 91.7312 30.04 91.2712 30.3C90.8112 30.56 90.2712 30.69 89.6512 30.69C89.0712 30.69 88.5912 30.57 88.2112 30.33C87.8312 30.09 87.5512 29.74 87.3712 29.28C87.1912 28.8 87.1012 28.24 87.1012 27.6ZM99.9988 13.71C99.9988 14.27 100.199 14.74 100.599 15.12C100.999 15.5 101.479 15.69 102.039 15.69C102.619 15.69 103.099 15.5 103.479 15.12C103.879 14.74 104.079 14.27 104.079 13.71C104.079 13.15 103.879 12.68 103.479 12.3C103.099 11.92 102.619 11.73 102.039 11.73C101.479 11.73 100.999 11.92 100.599 12.3C100.199 12.68 99.9988 13.15 99.9988 13.71ZM100.449 19.2V33H103.629V19.2H100.449ZM118.468 9.6V33H121.738V9.6H118.468ZM107.038 26.1C107.038 27.6 107.348 28.89 107.968 29.97C108.588 31.05 109.408 31.88 110.428 32.46C111.448 33.02 112.558 33.3 113.758 33.3C114.618 33.3 115.408 33.14 116.128 32.82C116.848 32.48 117.468 32 117.988 31.38C118.508 30.76 118.908 30.01 119.188 29.13C119.488 28.23 119.638 27.22 119.638 26.1C119.638 24.98 119.488 23.98 119.188 23.1C118.908 22.2 118.508 21.44 117.988 20.82C117.468 20.2 116.848 19.73 116.128 19.41C115.408 19.07 114.618 18.9 113.758 18.9C112.558 18.9 111.448 19.19 110.428 19.77C109.408 20.33 108.588 21.15 107.968 22.23C107.348 23.29 107.038 24.58 107.038 26.1ZM110.398 26.1C110.398 25.18 110.588 24.4 110.968 23.76C111.348 23.1 111.848 22.6 112.468 22.26C113.108 21.9 113.798 21.72 114.538 21.72C114.998 21.72 115.458 21.82 115.918 22.02C116.398 22.2 116.828 22.48 117.208 22.86C117.588 23.22 117.888 23.68 118.108 24.24C118.348 24.78 118.468 25.4 118.468 26.1C118.468 26.8 118.348 27.43 118.108 27.99C117.888 28.53 117.588 28.99 117.208 29.37C116.828 29.73 116.398 30.01 115.918 30.21C115.458 30.39 114.998 30.48 114.538 30.48C113.798 30.48 113.108 30.31 112.468 29.97C111.848 29.61 111.348 29.11 110.968 28.47C110.588 27.81 110.398 27.02 110.398 26.1ZM124.674 26.1C124.674 27.5 124.994 28.75 125.634 29.85C126.294 30.93 127.184 31.78 128.304 32.4C129.444 33 130.714 33.3 132.114 33.3C133.534 33.3 134.804 33 135.924 32.4C137.044 31.78 137.924 30.93 138.564 29.85C139.224 28.75 139.554 27.5 139.554 26.1C139.554 24.68 139.224 23.43 138.564 22.35C137.924 21.27 137.044 20.43 135.924 19.83C134.804 19.21 133.534 18.9 132.114 18.9C130.714 18.9 129.444 19.21 128.304 19.83C127.184 20.43 126.294 21.27 125.634 22.35C124.994 23.43 124.674 24.68 124.674 26.1ZM128.004 26.1C128.004 25.24 128.184 24.49 128.544 23.85C128.904 23.19 129.394 22.68 130.014 22.32C130.634 21.94 131.334 21.75 132.114 21.75C132.894 21.75 133.594 21.94 134.214 22.32C134.834 22.68 135.324 23.19 135.684 23.85C136.044 24.49 136.224 25.24 136.224 26.1C136.224 26.96 136.044 27.72 135.684 28.38C135.324 29.02 134.834 29.53 134.214 29.91C133.594 30.27 132.894 30.45 132.114 30.45C131.334 30.45 130.634 30.27 130.014 29.91C129.394 29.53 128.904 29.02 128.544 28.38C128.184 27.72 128.004 26.96 128.004 26.1Z" fill="#222222"/>
<path fill-rule="evenodd" clip-rule="evenodd" d="M10.0282 34.3317C9.24181 33.869 8.47112 33.4223 7.68469 32.9595C7.35439 32.7681 7.07128 32.5926 6.81963 32.4171L1.00009 28.9388C0.968632 32.9436 1.36184 33.8211 4.49181 35.672C8.2981 37.9217 12.1359 40.0916 15.9421 42.3733C16.1938 42.5328 16.4455 42.6605 16.6814 42.8041C19.89 44.639 20.7865 44.3837 24.6243 42.0542C26.8105 40.7299 29.0912 39.4534 31.3246 38.161C32.9446 37.2356 34.5647 36.2942 36.106 35.321C38.6855 33.7095 39.0315 32.6883 39.0001 29.0345C39.0001 29.0185 39.0001 29.0026 39.0001 28.9866L32.3312 32.9915C32.2368 33.0553 32.1425 33.1031 32.0481 33.151C31.4661 33.502 30.8842 33.8531 30.2865 34.2041L27.6441 35.7837C27.6599 35.7518 27.6756 35.7198 27.6913 35.6879C26.3387 36.4697 24.986 37.2356 23.6648 38.0334C20.409 40.0278 19.8113 40.1076 16.7758 38.2887C14.5266 36.9484 12.2774 35.6401 10.0282 34.3317ZM36.0903 27.3911C38.544 25.8434 38.9686 24.8542 38.9844 21.5992C38.9844 21.4397 38.9844 21.2642 38.9844 21.1046C38.9844 21.0887 38.9844 21.0568 38.9844 21.0408L35.068 23.3863L32.7716 24.7584C32.52 24.918 32.284 25.0616 32.0324 25.2211C31.246 25.6998 30.4595 26.1625 29.6574 26.6252L28.116 27.5506C28.116 27.5347 28.116 27.5187 28.116 27.5028C26.6218 28.3484 25.1118 29.21 23.6491 30.1035C20.3933 32.082 19.7956 32.1777 16.76 30.3588C11.5224 27.2156 6.30059 24.0883 1.04727 20.9451C1.04727 21.679 1.04727 22.413 1.04727 23.1469C1.25174 25.3967 2.00671 26.2742 4.47608 27.7261C4.61764 27.8059 4.75919 27.8857 4.90075 27.9814C8.56549 30.1514 12.246 32.2256 15.9107 34.4274C19.7327 36.7091 20.4719 36.5974 24.5771 34.0924C25.7253 33.3903 26.9206 32.7043 28.1003 32.0182C29.4057 31.2683 30.7112 30.5343 32.0009 29.7844C33.0233 29.1941 34.0613 28.5877 35.0522 27.9814C35.4297 27.8059 35.76 27.5985 36.0903 27.3911ZM35.0837 9.0742C31.2145 6.82448 27.3453 4.52689 23.4918 2.27717C20.0945 0.314642 19.2609 0.585885 15.1557 3.10685C11.9786 5.03746 8.8486 6.85639 5.62426 8.69127L5.56135 8.70722L5.40406 8.787C5.24678 8.88273 5.08949 8.96251 4.93221 9.05824L4.90075 9.0742C4.71201 9.18589 4.539 9.28162 4.36598 9.39331C2.96615 10.2389 2.13254 10.8931 1.64496 11.7388C0.952903 12.9514 0.889989 15.1054 1.33039 16.4456C1.66068 17.4508 2.2741 18.1369 3.438 18.9187C3.75257 19.1261 4.0986 19.3495 4.49181 19.5729C4.63337 19.6527 4.77492 19.7484 4.91648 19.8282L4.94794 19.8441C8.59694 22.0141 12.2774 24.0883 15.9264 26.2742C19.7484 28.5558 20.4877 28.4441 24.5928 25.9391C25.741 25.2371 26.9363 24.551 28.1317 23.8649C29.4372 23.115 30.7426 22.3811 32.0324 21.6312C32.0324 21.1525 32.0324 20.6738 32.0324 20.1952C32.0324 18.9028 31.9537 17.9774 31.7178 17.2274C31.2931 15.8872 30.3337 15.1373 28.3205 13.9406L21.0224 9.63264C20.4405 9.29757 20.4719 9.31353 19.5754 9.88793L18.7575 10.4145C17.8453 11.0048 17.9397 12.4089 18.7733 12.9195C20.9123 14.18 23.0514 15.4404 25.1905 16.685C26.8734 17.6742 27.6127 18.2965 27.943 19.4453C26.5117 20.259 25.0647 21.0727 23.6806 21.9343C20.4248 23.9128 19.8271 24.0085 16.7915 22.1896C13.7402 20.3866 10.7046 18.6634 7.68469 16.8605C6.99264 16.4456 6.45787 16.0946 6.06466 15.7276C5.23105 14.9458 4.96367 14.4352 5.71863 13.5258C6.23767 12.9035 7.07128 12.361 8.42393 11.5952C11.0349 10.1432 13.5829 8.67531 16.1466 7.11167C16.2253 7.06381 16.3039 7.01594 16.3825 6.96808C19.4339 5.10128 20.1416 4.94173 22.7683 6.4575C25.8825 8.26047 29.0125 10.1273 32.1267 11.9462C35.8229 14.1002 35.1623 15.951 35.3354 19.7005C35.6814 19.4931 35.7443 19.4453 36.0903 19.2378C38.2609 17.8657 38.8428 16.9402 38.9686 14.4671C38.8428 11.7228 38.1193 10.8772 35.2724 9.2178C35.2095 9.15398 35.1466 9.12206 35.0837 9.0742Z" fill="#234DD4"/>
</svg>
