<svg width="14" height="16" viewBox="0 0 14 16" fill="none" xmlns="http://www.w3.org/2000/svg">
<path d="M9.41214 7.41891C10.4359 6.67225 11.1026 5.46387 11.1026 4.10256C11.1026 1.84041 9.26221 0 7.00005 0C4.7379 0 2.89749 1.84041 2.89749 4.10256C2.89749 5.46387 3.56415 6.67225 4.58796 7.41891C2.04296 8.39281 0.230835 10.8603 0.230835 13.7436C0.230835 14.9878 1.24305 16 2.48724 16H11.5129C12.757 16 13.7693 14.9878 13.7693 13.7436C13.7693 10.8603 11.9571 8.39281 9.41214 7.41891ZM4.12827 4.10256C4.12827 2.51906 5.41655 1.23078 7.00005 1.23078C8.58355 1.23078 9.87183 2.51906 9.87183 4.10256C9.87183 5.68606 8.58355 6.97437 7.00005 6.97437C5.41655 6.97437 4.12827 5.68606 4.12827 4.10256ZM11.5129 14.7692H2.48724C1.92171 14.7692 1.46162 14.3091 1.46162 13.7436C1.46162 10.6896 3.94611 8.20509 7.00008 8.20509C10.054 8.20509 12.5385 10.6896 12.5385 13.7436C12.5385 14.3091 12.0784 14.7692 11.5129 14.7692Z" fill="#222222"/>
</svg>
